<svg width="224" height="224" viewBox="0 0 224 224" fill="none" xmlns="http://www.w3.org/2000/svg">
<path fill-rule="evenodd" clip-rule="evenodd" d="M176.307 171.993H47.689C37.9805 171.993 30.0816 164.093 30.0816 154.383V147.565C30.0816 146.15 31.2269 145.005 32.6419 145.005L95.2618 145.006C96.0269 145.006 96.7507 145.349 97.2374 145.937L102.532 152.364H121.815L127.066 145.943C127.551 145.35 128.279 145.004 129.047 145.004L191.358 145.005C192.772 145.005 193.918 146.15 193.918 147.565V154.384C193.916 164.094 186.018 171.993 176.308 171.993H176.307ZM35.2003 150.126V154.384C35.2003 161.271 40.8029 166.873 47.688 166.873H176.307C183.194 166.873 188.796 161.27 188.796 154.383V150.125H130.259L125.008 156.544C124.523 157.138 123.795 157.483 123.027 157.483H101.322C100.556 157.483 99.8333 157.14 99.3466 156.552L94.0522 150.126H35.2003Z" fill="#ffffff" id="id_101"></path>
<path fill-rule="evenodd" clip-rule="evenodd" d="M184.538 150.125C183.123 150.125 181.978 148.98 181.978 147.564V69.6163C181.978 62.7293 176.375 57.1277 169.488 57.1277H54.5069C47.6199 57.1277 42.0173 62.7302 42.0173 69.6163V147.564C42.0173 148.979 40.872 150.124 39.457 150.124C38.0429 150.124 36.8967 148.979 36.8967 147.564V69.6163C36.8967 59.9069 44.7955 52.007 54.5059 52.007H169.487C179.197 52.007 187.096 59.9059 187.096 69.6163V147.564C187.096 148.979 185.95 150.125 184.536 150.125H184.538Z" fill="#ffffff" id="id_102"></path>
<path fill-rule="evenodd" clip-rule="evenodd" d="M171.897 137.484H52.0992C50.6851 137.484 49.5389 136.339 49.5389 134.924V69.6163C49.5389 66.9226 51.8141 64.6493 54.5069 64.6493L169.488 64.6483C172.182 64.6483 174.456 66.9235 174.456 69.6163V134.924C174.456 136.339 173.31 137.484 171.896 137.484H171.897ZM54.6595 132.365H169.336V69.7709H54.6595V132.365Z" fill="#f7feff" id="id_103"></path>
<path fill-rule="evenodd" clip-rule="evenodd" d="M135.028 125.616H88.968C84.4935 125.616 80.8531 121.976 80.8531 117.5V84.6336C80.8531 80.159 84.4935 76.5187 88.968 76.5187H135.029C139.503 76.5187 143.145 80.159 143.145 84.6336V117.5C143.144 121.975 139.503 125.616 135.027 125.616H135.028ZM88.968 81.6374C87.3159 81.6374 85.9719 82.9814 85.9719 84.6326V117.5C85.9719 119.151 87.3159 120.495 88.968 120.495H135.029C136.68 120.495 138.024 119.151 138.024 117.5V84.6336C138.024 82.9814 136.68 81.6374 135.029 81.6374H88.968Z" fill="#f64348" id="id_104"></path>
<path fill-rule="evenodd" clip-rule="evenodd" d="M119.209 116.117H94.9094C92.496 116.117 90.5328 114.155 90.5328 111.74L90.5337 90.3926C90.5337 87.9792 92.496 86.016 94.9094 86.016H119.209C121.622 86.016 123.585 87.9802 123.585 90.3926V111.74C123.585 114.155 121.622 116.117 119.209 116.117ZM95.6534 110.997H118.466V91.1376H95.6534V110.997Z" fill="#ffffff" id="id_105"></path>
<path fill-rule="evenodd" clip-rule="evenodd" d="M130.905 112.398C130.581 112.398 130.254 112.336 129.945 112.212L120.066 108.214C119.099 107.823 118.466 106.884 118.466 105.841V96.2918C118.466 95.2493 119.099 94.3104 120.066 93.9187L129.945 89.9213C130.732 89.5997 131.631 89.6957 132.336 90.1718C133.042 90.648 133.465 91.4438 133.465 92.2944V109.838C133.465 110.69 133.042 111.485 132.336 111.961C131.908 112.252 131.408 112.399 130.905 112.399V112.398ZM123.585 104.116L128.343 106.042V96.0931L123.585 98.0189V104.116Z" fill="#ffffff" id="id_106"></path>
</svg>