<svg id="Layer_1" data-name="Layer 1" xmlns="http://www.w3.org/2000/svg" viewBox="0 0 100 100"><path d="M5,73.51h7.421c.018,0,.035,0,.054,0s.035,0,.053,0H34.72a1.5,1.5,0,0,0,1.5-1.5V58.3L50,44.494,63.78,58.3V72.01a1.5,1.5,0,0,0,1.5,1.5H87.459c.019,0,.035,0,.054,0s.035,0,.053,0H95a1.5,1.5,0,0,0,1.5-1.5V59.02a8.08,8.08,0,0,0-8.08-8.06H84.39a1.5,1.5,0,0,0-1.5,1.5,3.75,3.75,0,0,1-7.5,0,1.5,1.5,0,0,0-1.5-1.5H70.5L55.971,36.43l-4.91-4.91a1.5,1.5,0,0,0-2.122,0L29.5,50.96H26.11a1.5,1.5,0,0,0-1.5,1.5,3.75,3.75,0,0,1-7.5,0,1.5,1.5,0,0,0-1.5-1.5H11.561A8.07,8.07,0,0,0,3.5,59.02V72.01A1.5,1.5,0,0,0,5,73.51ZM69.88,53.96h2.678a6.751,6.751,0,0,0,13.164,0h2.7a5.076,5.076,0,0,1,5.08,5.06V70.51H89.013V62.964a1.5,1.5,0,0,0-3,0V70.51H66.78V57.68a1.5,1.5,0,0,0-.438-1.059L52.124,42.375l2.783-2.767L68.819,53.521A1.5,1.5,0,0,0,69.88,53.96ZM6.5,59.02a5.067,5.067,0,0,1,5.061-5.06h2.717a6.751,6.751,0,0,0,13.164,0H30.12a1.5,1.5,0,0,0,1.061-.439L50,34.7l2.785,2.786-.039.039-3.8,3.78a1.737,1.737,0,0,0-.116.141L33.658,56.621a1.5,1.5,0,0,0-.438,1.059V70.51H13.975V62.964a1.5,1.5,0,0,0-3,0V70.51H6.5Z" id="id_101" style="fill: rgb(246, 67, 72);"></path><path d="M8.255,38.71a12.212,12.212,0,0,0,9.978,12.023,11.939,11.939,0,0,0,2.242.207A12.225,12.225,0,1,0,8.255,38.71Zm21.45,0a9.212,9.212,0,0,1-9.23,9.23,9.085,9.085,0,0,1-1.689-.155A9.226,9.226,0,1,1,29.705,38.71Z" id="id_102" style="fill: rgb(255, 255, 255);"></path><path d="M66.367,38.71A12.225,12.225,0,1,0,78.588,26.49,12.269,12.269,0,0,0,66.367,38.71Zm21.45,0a9.231,9.231,0,0,1-7.526,9.076,9.468,9.468,0,0,1-6.111-.96A9.229,9.229,0,1,1,87.817,38.71Z" id="id_103" style="fill: rgb(255, 255, 255);"></path></svg>